<?xml version="1.0" encoding="UTF-8"?>
<svg width="437px" height="60px" viewBox="0 0 437 60" version="1.1" xmlns="http://www.w3.org/2000/svg" xmlns:xlink="http://www.w3.org/1999/xlink">
    <!-- Generator: Sketch 46 (44423) - http://www.bohemiancoding.com/sketch -->
    <title>logo_unhm</title>
    <desc>Created with Sketch.</desc>
    <defs></defs>
    <g id="Images" stroke="none" stroke-width="1" fill="none" fill-rule="evenodd">
        <g id="LOGOS" transform="translate(-24.000000, -499.000000)">
            <g id="logo_unhm" transform="translate(24.074219, 499.000000)">
                <g id="logo_single-white-print-cmyk-copy-2">
                    <path d="M60.7030394,1.36458536 L66.9627246,1.36458536 L66.9627246,3.25439602 L65.0929225,3.25439602 L65.0929225,10.3964597 C65.0929225,11.4679193 65.0719135,12.4763519 65.6391568,13.4007484 C66.1853911,14.2821265 67.1097877,14.6602887 68.1382288,14.6602887 C68.6634541,14.6602887 69.0206073,14.5552437 69.5038146,14.3451536 C70.2811481,14.0300184 70.7223373,13.1486403 70.9534365,12.3923159 C71.1425176,11.6990185 71.1004995,10.879667 71.1004995,10.1863696 L71.1004995,3.25439602 L69.2517065,3.25439602 L69.2517065,1.36458536 L75.2382745,1.36458536 L75.2382745,3.25439602 L73.7256256,3.25439602 L73.7256256,9.93426144 C73.7256256,11.0687481 73.7886527,12.3713068 73.3264544,13.4427665 C72.8652566,14.4922166 72.0879231,15.3745951 71.1004995,15.9418385 C70.3021571,16.4250457 68.8105172,16.6561449 67.8661121,16.6561449 C66.9417156,16.6561449 65.5971388,16.3830277 64.7987963,15.9418385 C63.9164178,15.4796402 63.2651385,14.7233158 62.8029402,13.8619463 C62.1946793,12.7704781 62.2156883,11.5309464 62.2156883,10.3124237 L62.2156883,3.25439602 L60.7030394,3.25439602 L60.7030394,1.36458536" id="Fill-1" fill="#FFFFFE"></path>
                    <path d="M79.9603001,7.05702721 C80.6746065,5.62841439 81.7460661,4.956126 83.321742,4.956126 C85.0434806,4.956126 86.3460393,6.02758562 86.5981475,7.05702721 C86.7452106,7.64527955 86.7452106,8.0864688 86.7452106,8.56867565 L86.7452106,14.6182707 L88.1318054,14.6182707 L88.1318054,16.4040367 L82.6494536,16.4040367 L82.6494536,14.6182707 L83.9520124,14.6182707 L83.9520124,9.59811724 C83.9520124,9.05188293 83.9730214,8.61069368 83.8049493,8.06545979 C83.6158682,7.3931714 83.0486249,6.88895511 82.3133094,6.88895511 C80.2754353,6.88895511 80.1493812,8.79977478 80.1493812,10.3544417 L80.1493812,14.6182707 L81.493958,14.6182707 L81.493958,16.4040367 L75.8855522,16.4040367 L75.8855522,14.6182707 L77.356183,14.6182707 L77.356183,7.01500918 L75.8855522,7.01500918 L75.8855522,5.22924316 L79.9603001,5.22924316 L79.9603001,7.05702721" id="Fill-2" fill="#FFFFFE"></path>
                    <path d="M90.9590181,3.5285136 L93.7522163,3.5285136 L93.7522163,0.965414128 L90.9590181,0.965414128 L90.9590181,3.5285136 Z M89.4683787,16.4040367 L89.4683787,14.6182707 L90.9590181,14.6182707 L90.9590181,7.01500918 L89.4683787,7.01500918 L89.4683787,5.22924316 L93.7532167,5.22924316 L93.7532167,14.6182707 L95.0557755,14.6182707 L95.0557755,16.4040367 L89.4683787,16.4040367 L89.4683787,16.4040367 Z" id="Fill-3" fill="#FFFFFE"></path>
                    <polyline id="Fill-4" fill="#FFFFFE" points="95.5810008 5.22924316 100.832253 5.22924316 100.832253 7.01500918 99.4456586 7.01500918 101.525551 14.1350634 101.54656 14.1350634 103.899569 7.01500918 102.491965 7.01500918 102.491965 5.22924316 107.407074 5.22924316 107.407074 7.01500918 106.545704 7.01500918 103.24829 16.4040367 99.7818028 16.4040367 96.4633793 7.01500918 95.5810008 7.01500918 95.5810008 5.22924316"></polyline>
                    <path d="M115.689627,9.76618934 C115.668618,8.50564861 115.164401,6.699874 113.567716,6.699874 C111.802959,6.699874 111.236717,8.29555849 111.110662,9.76618934 L115.689627,9.76618934 Z M111.047635,11.3838833 C111.026626,12.9805682 111.697914,14.8283608 113.609734,14.8283608 C114.723212,14.8283608 115.500546,14.0720364 115.689627,13.0015772 L118.356771,13.0015772 C118.16769,15.4586312 115.731645,16.6561449 113.462671,16.6561449 C112.748365,16.6561449 111.78195,16.4250457 111.131671,16.1309196 C110.396356,15.7947754 109.913149,15.3745951 109.429941,14.7233158 C108.547563,13.5888291 108.211419,12.1191987 108.211419,10.7115949 C108.211419,7.64527955 109.955167,4.956126 113.336617,4.956126 C114.828257,4.956126 116.235861,5.35529723 117.264302,6.44776586 C118.16769,7.41418041 118.440807,8.98885589 118.503834,10.2493966 C118.524843,10.5855408 118.566861,10.900676 118.524843,11.2158112 C118.524843,11.2788382 118.503834,11.3208562 118.503834,11.3838833 L111.047635,11.3838833 L111.047635,11.3838833 Z" id="Fill-5" fill="#FFFFFE"></path>
                    <path d="M123.726074,7.60326152 C124.167263,5.6494234 125.490831,4.85108094 127.443669,5.04016205 L127.443669,7.77133362 C127.128534,7.68729757 126.792389,7.60326152 126.456245,7.60326152 C125.427804,7.60326152 124.524416,8.23253146 124.167263,9.177937 C123.894146,9.93426144 123.894146,10.963703 123.894146,11.7410365 L123.894146,14.6182707 L125.679912,14.6182707 L125.679912,16.4040367 L119.630317,16.4040367 L119.630317,14.6182707 L121.099947,14.6182707 L121.099947,7.01500918 L119.630317,7.01500918 L119.630317,5.22924316 L123.726074,5.22924316 L123.726074,7.60326152" id="Fill-6" fill="#FFFFFE"></path>
                    <path d="M135.132967,8.8207838 C135.006913,7.62427054 134.565724,6.63684697 133.222147,6.63684697 C132.31876,6.63684697 131.478399,7.0360182 131.478399,8.06545979 C131.478399,8.42161257 131.583445,8.6527117 131.814544,8.92582886 C132.003625,9.07289194 132.234724,9.13591898 132.444814,9.24096404 C133.642328,9.57710823 135.889292,9.74518033 136.729652,10.7956309 C137.296895,11.4889283 137.506986,12.1402077 137.506986,13.0225862 C137.527995,13.6728652 137.233868,14.6812977 136.813688,15.2695501 C136.309472,15.9628475 135.090949,16.6561449 133.516274,16.6561449 C132.465823,16.6561449 131.331336,16.1729376 130.764093,15.2695501 L130.764093,16.4040367 L128.747228,16.4040367 L128.747228,12.5183699 L130.932165,12.5183699 C131.016201,13.9039643 131.625463,14.8703789 133.117102,14.8703789 C133.894436,14.8703789 134.691778,14.3241445 134.691778,13.4847845 C134.691778,13.0646042 134.565724,12.560388 134.145544,12.3502978 C132.886003,11.7410365 131.352345,11.8880996 130.154832,11.0897571 C129.12539,10.3754507 128.726219,9.40903614 128.726219,8.16950442 C128.621174,7.24610832 129.167408,6.57381993 129.461534,6.15363969 C129.881715,5.56538735 131.268309,4.956126 132.570868,4.956126 C133.537283,4.956126 134.628751,5.37630624 135.217003,6.15363969 L135.217003,5.22924316 L137.19185,5.22924316 L137.19185,8.8207838 L135.132967,8.8207838" id="Fill-7" fill="#FFFFFE"></path>
                    <path d="M140.416233,3.5285136 L143.210432,3.5285136 L143.210432,0.965414128 L140.416233,0.965414128 L140.416233,3.5285136 Z M138.924594,16.4040367 L138.924594,14.6182707 L140.416233,14.6182707 L140.416233,7.01500918 L138.924594,7.01500918 L138.924594,5.22924316 L143.210432,5.22924316 L143.210432,14.6182707 L144.51199,14.6182707 L144.51199,16.4040367 L138.924594,16.4040367 L138.924594,16.4040367 Z" id="Fill-8" fill="#FFFFFE"></path>
                    <path d="M152.749524,13.4637755 C152.749524,14.7863428 152.329344,16.0048655 150.942749,16.4460548 C150.71165,16.5300908 150.018352,16.6561449 149.787253,16.6561449 C149.283037,16.6561449 148.988911,16.5721088 148.505704,16.4460548 C147.540289,16.1519286 147.015064,15.4796402 146.804974,14.5342347 C146.699929,14.0720364 146.720938,13.0856133 146.720938,12.581397 L146.720938,7.01500918 L145.061226,7.01500918 L145.061226,5.22924316 L146.720938,5.22924316 L146.720938,3.31742305 L149.514136,2.37301794 L149.514136,5.22924316 L152.308335,5.22924316 L152.308335,7.01500918 L149.514136,7.01500918 L149.514136,14.0090094 C149.514136,14.2190995 149.64019,14.6392797 149.85028,14.7233158 C151.13183,15.2485411 151.047794,13.4637755 151.026785,12.707451 L152.749524,12.707451 L152.749524,13.4637755" id="Fill-9" fill="#FFFFFE"></path>
                    <path d="M153.661915,5.22924316 L159.018213,5.22924316 L159.018213,7.01500918 L157.569592,7.01500918 L159.71151,12.9175412 L159.816556,13.1906583 L161.959475,7.01500918 L160.57288,7.01500918 L160.57288,5.22924316 L165.530006,5.22924316 L165.530006,7.01500918 L164.647628,7.01500918 L160.656916,17.0973341 C159.984628,18.8410821 159.333348,20.0796134 157.233447,20.0796134 C156.666204,20.0796134 156.098961,20.0796134 155.552726,19.9745684 L155.552726,18.0427397 C155.930889,18.0637487 156.309051,18.1057667 156.687213,18.1057667 C157.695646,18.1057667 157.904735,17.7696225 158.261889,16.908253 L158.408952,16.5510998 L154.565303,7.01500918 L153.661915,7.01500918 L153.661915,5.22924316" id="Fill-10" fill="#FFFFFE"></path>
                    <path d="M173.892594,10.7956309 C173.892594,11.7200275 173.97663,12.560388 174.417819,13.4007484 C174.81699,14.1980905 175.531297,14.8073518 176.475702,14.8073518 C177.484134,14.8073518 178.177432,14.0930454 178.555594,13.2326763 C178.870729,12.4973609 178.954765,11.5309464 178.954765,10.7536129 C178.954765,9.82921638 178.870729,9.03087392 178.450549,8.19051343 C178.051378,7.41418041 177.379089,6.80491906 176.433684,6.80491906 C174.417819,6.80491906 173.892594,9.24096404 173.892594,10.7956309 Z M172.253891,14.8073518 C171.329494,13.6518562 170.972341,12.1822257 170.972341,10.7326039 C170.972341,9.15692799 171.350503,7.7293156 172.442972,6.55281092 C173.430395,5.50236031 174.922035,4.956126 176.349648,4.956126 C179.942189,4.956126 181.874017,7.45619844 181.874017,10.837649 C181.874017,14.0720364 179.879162,16.6561449 176.433684,16.6561449 C174.922035,16.6561449 173.199296,15.9838565 172.253891,14.8073518 L172.253891,14.8073518 Z" id="Fill-11" fill="#FFFFFE"></path>
                    <path d="M182.740389,7.01500918 L182.740389,5.22924316 L184.378092,5.22924316 L184.378092,4.2628286 C184.378092,3.23338701 184.588182,2.14191881 185.512578,1.55366647 C186.415966,0.944405116 187.277335,0.734314995 188.369804,0.734314995 C188.895029,0.734314995 189.419254,0.860369067 189.944479,1.00743215 L189.944479,2.89724281 C189.566317,2.83421578 189.210164,2.77118874 188.831002,2.77118874 C188.264759,2.77118874 187.80256,2.89724281 187.402389,3.33843207 C187.150281,3.67457626 187.17229,4.45190971 187.17229,4.80906291 L187.17229,5.22924316 L189.08311,5.22924316 L189.08311,7.01500918 L187.17229,7.01500918 L187.17229,14.6182707 L189.021083,14.6182707 L189.021083,16.4040367 L182.866443,16.4040367 L182.866443,14.6182707 L184.378092,14.6182707 L184.378092,7.01500918 L182.740389,7.01500918" id="Fill-12" fill="#FFFFFE"></path>
                    <polyline id="Fill-13" fill="#FFFFFE" points="196.458273 16.4040367 196.458273 14.5132256 198.202021 14.5132256 198.202021 3.25439602 196.458273 3.25439602 196.458273 1.36458536 202.04567 1.36458536 207.633067 13.1906583 207.654076 13.1906583 207.654076 3.25439602 205.889319 3.25439602 205.889319 1.36458536 211.81386 1.36458536 211.81386 3.25439602 210.174157 3.25439602 210.174157 16.4040367 206.456562 16.4040367 200.743112 4.2628286 200.723103 4.2628286 200.723103 14.5132256 202.381814 14.5132256 202.381814 16.4040367 196.458273 16.4040367"></polyline>
                    <path d="M219.966358,9.76618934 C219.946349,8.50564861 219.442133,6.699874 217.845448,6.699874 C216.080691,6.699874 215.513447,8.29555849 215.387393,9.76618934 L219.966358,9.76618934 Z M215.324366,11.3838833 C215.303357,12.9805682 215.975646,14.8283608 217.886465,14.8283608 C218.999943,14.8283608 219.778277,14.0720364 219.966358,13.0015772 L222.634502,13.0015772 C222.445421,15.4586312 220.008376,16.6561449 217.740403,16.6561449 C217.026096,16.6561449 216.059682,16.4250457 215.408402,16.1309196 C214.673087,15.7947754 214.18988,15.3745951 213.706672,14.7233158 C212.824294,13.5888291 212.48915,12.1191987 212.48915,10.7115949 C212.48915,7.64527955 214.232898,4.956126 217.614349,4.956126 C219.105989,4.956126 220.512592,5.35529723 221.542034,6.44776586 C222.445421,7.41418041 222.718538,8.98885589 222.781565,10.2493966 C222.802574,10.5855408 222.843592,10.900676 222.802574,11.2158112 C222.802574,11.2788382 222.781565,11.3208562 222.781565,11.3838833 L215.324366,11.3838833 L215.324366,11.3838833 Z" id="Fill-14" fill="#FFFFFE"></path>
                    <polyline id="Fill-15" fill="#FFFFFE" points="228.812152 5.22924316 228.812152 7.01500918 227.320512 7.01500918 228.916197 14.2401085 228.938206 14.2401085 231.312225 5.22924316 234.713684 5.22924316 236.793576 14.2401085 236.814585 14.2401085 238.706396 7.01500918 237.277784 7.01500918 237.277784 5.22924316 242.23491 5.22924316 242.23491 7.01500918 241.205468 7.01500918 238.516315 16.4040367 234.987801 16.4040367 232.970936 8.02344177 230.680954 16.4040367 227.15244 16.4040367 224.463287 7.01500918 223.476863 7.01500918 223.476863 5.22924316 228.812152 5.22924316"></polyline>
                    <polyline id="Fill-16" fill="#FFFFFE" points="247.658236 16.4040367 247.658236 14.5132256 249.380975 14.5132256 249.380975 3.25439602 247.658236 3.25439602 247.658236 1.36458536 254.085994 1.36458536 254.085994 3.25439602 252.25821 3.25439602 252.25821 7.83436066 258.348822 7.83436066 258.348822 3.25439602 256.522039 3.25439602 256.522039 1.36458536 262.969805 1.36458536 262.969805 3.25439602 261.227057 3.25439602 261.227057 14.5132256 262.969805 14.5132256 262.969805 16.4040367 256.522039 16.4040367 256.522039 14.5132256 258.348822 14.5132256 258.348822 9.72417132 252.25821 9.72417132 252.25821 14.5132256 254.085994 14.5132256 254.085994 16.4040367 247.658236 16.4040367"></polyline>
                    <path d="M269.885771,11.2368202 C268.457158,11.2368202 267.153599,11.5729644 267.153599,13.2746944 C267.153599,14.1350634 267.721843,14.8283608 268.62523,14.8283608 C270.662104,14.8283608 271.145312,12.8755231 271.208339,11.2368202 L269.885771,11.2368202 Z M271.418429,14.6182707 C270.788158,16.0258745 269.443582,16.6561449 267.930933,16.6561449 C266.377266,16.6561449 264.864617,15.7737664 264.612509,14.6182707 C264.38141,13.8829553 264.360401,13.5057935 264.360401,13.1696493 C264.360401,12.2242438 264.738563,11.2788382 265.45287,10.6485678 C265.999104,10.1443516 267.259645,9.7031623 267.99396,9.68215329 C268.519185,9.66114428 269.086428,9.57710823 269.611654,9.57710823 C270.11587,9.57710823 270.620086,9.64013527 271.124302,9.66114428 C271.270365,8.31656751 271.082284,6.63684697 269.338536,6.63684697 C268.121014,6.63684697 267.532762,7.47720745 267.553771,8.6527117 L264.780581,8.6527117 C264.843608,5.92254056 266.881482,4.956126 269.338536,4.956126 C271.082284,4.956126 272.720987,5.41832426 273.476311,7.14106326 C273.644384,7.51922548 273.686402,7.75032461 273.750429,8.19051343 C273.812456,8.67372071 273.834465,9.13591898 273.834465,9.61912626 L273.834465,14.6392797 L275.283086,14.6392797 L275.283086,16.4040367 L271.418429,16.4040367 L271.418429,14.6182707 L271.418429,14.6182707 Z" id="Fill-17" fill="#FFFFFE"></path>
                    <path d="M280.620376,7.05702721 C281.334682,5.62841439 282.511187,4.956126 284.127881,4.956126 C285.61952,4.956126 286.711989,5.52336933 287.236214,7.05702721 C287.846476,5.62841439 289.043989,4.956126 290.492611,4.956126 C292.089296,4.956126 293.223782,5.69144142 293.770017,7.05702721 C294.042133,7.75032461 293.958097,8.25354047 293.958097,8.79977478 L293.958097,14.6182707 L295.323683,14.6182707 L295.323683,16.4040367 L289.841331,16.4040367 L289.841331,14.6182707 L291.164899,14.6182707 L291.164899,9.64013527 C291.164899,8.50564861 291.017836,7.01500918 289.505187,7.01500918 C288.686836,7.01500918 288.098584,7.3931714 287.74043,8.14949584 C287.384277,8.88381083 287.384277,9.5140812 287.384277,10.3124237 L287.384277,14.6182707 L288.686836,14.6182707 L288.686836,16.4040367 L283.30953,16.4040367 L283.30953,14.6182707 L284.591079,14.6182707 L284.591079,9.45105416 C284.591079,8.8207838 284.591079,8.33757652 284.316962,7.75032461 C284.106872,7.30913535 283.561638,7.01500918 283.07843,7.01500918 C281.901926,7.01500918 281.270655,7.7293156 280.95652,8.77876577 C280.810458,9.32500009 280.810458,9.85022539 280.810458,10.4174687 L280.810458,14.6182707 L282.154034,14.6182707 L282.154034,16.4040367 L276.545628,16.4040367 L276.545628,14.6182707 L278.016259,14.6182707 L278.016259,7.01500918 L276.545628,7.01500918 L276.545628,5.22924316 L280.620376,5.22924316 L280.620376,7.05702721" id="Fill-18" fill="#FFFFFE"></path>
                    <path d="M300.646967,8.1274864 C300.162759,9.05188293 299.974678,9.95527045 299.974678,10.858658 C299.974678,12.4343339 300.582939,14.7653338 302.557786,14.7653338 C304.573651,14.7653338 305.056858,12.560388 305.056858,10.963703 C305.056858,9.36701811 304.741723,6.78391005 302.641822,6.78391005 C301.738435,6.78391005 300.983111,7.41418041 300.646967,8.1274864 Z M299.974678,7.12005425 C300.751011,5.60740537 301.947525,4.956126 303.272093,4.956126 C304.972822,4.956126 306.108309,5.6494234 307.115742,7.12005425 C307.556931,7.77133362 307.935093,9.15692799 307.935093,10.6695769 C307.935093,12.3502978 307.767021,13.4007484 306.884642,14.8493698 C306.170336,16.0258745 304.657687,16.6561449 303.314111,16.6561449 C302.074579,16.6561449 300.983111,16.1099106 300.14275,14.7233158 L300.14275,18.0217307 L301.717426,18.0217307 L301.717426,19.8064963 L295.877921,19.8064963 L295.877921,18.0217307 L297.348552,18.0217307 L297.348552,7.01500918 L295.877921,7.01500918 L295.877921,5.22924316 L299.974678,5.22924316 L299.974678,7.12005425 L299.974678,7.12005425 Z" id="Fill-19" fill="#FFFFFE"></path>
                    <path d="M316.051575,8.8207838 C315.925521,7.62427054 315.485332,6.63684697 314.140755,6.63684697 C313.237367,6.63684697 312.397007,7.0360182 312.397007,8.06545979 C312.397007,8.42161257 312.501052,8.6527117 312.733151,8.92582886 C312.921232,9.07289194 313.153331,9.13591898 313.363422,9.24096404 C314.560935,9.57710823 316.807899,9.74518033 317.64826,10.7956309 C318.214502,11.4889283 318.425593,12.1402077 318.425593,13.0225862 C318.446602,13.6728652 318.152476,14.6812977 317.732296,15.2695501 C317.228079,15.9628475 316.009557,16.6561449 314.433881,16.6561449 C313.384431,16.6561449 312.248943,16.1729376 311.682701,15.2695501 L311.682701,16.4040367 L309.665835,16.4040367 L309.665835,12.5183699 L311.850773,12.5183699 C311.934809,13.9039643 312.54407,14.8703789 314.03471,14.8703789 C314.813043,14.8703789 315.610385,14.3241445 315.610385,13.4847845 C315.610385,13.0646042 315.485332,12.560388 315.065152,12.3502978 C313.804611,11.7410365 312.270953,11.8880996 311.073439,11.0897571 C310.043998,10.3754507 309.644826,9.40903614 309.644826,8.16950442 C309.539781,7.24610832 310.086016,6.57381993 310.380142,6.15363969 C310.800322,5.56538735 312.186917,4.956126 313.489476,4.956126 C314.45489,4.956126 315.547358,5.37630624 316.135611,6.15363969 L316.135611,5.22924316 L318.110458,5.22924316 L318.110458,8.8207838 L316.051575,8.8207838" id="Fill-20" fill="#FFFFFE"></path>
                    <path d="M319.725151,16.4040367 L319.725151,14.6182707 L321.153763,14.6182707 L321.153763,2.89724281 L319.725151,2.89724281 L319.725151,1.11247721 L323.947962,1.11247721 L323.947962,6.67886499 C324.724295,5.43933328 325.6687,4.956126 327.140331,4.956126 C328.064728,4.956126 329.177205,5.22924316 329.807475,5.94354957 C330.479764,6.699874 330.584809,7.62427054 330.584809,8.58968466 L330.584809,14.6182707 L331.992413,14.6182707 L331.992413,16.4040367 L326.425025,16.4040367 L326.425025,14.6182707 L327.79061,14.6182707 L327.79061,9.59811724 C327.79061,9.177937 327.748592,8.73674775 327.685565,8.31656751 C327.622538,7.51922548 326.972259,6.8679461 326.152908,6.8679461 C325.144475,6.8679461 324.577232,7.3931714 324.241088,8.29555849 C323.925952,9.07289194 323.947962,9.85022539 323.947962,10.6695769 L323.947962,14.6182707 L325.312547,14.6182707 L325.312547,16.4040367 L319.725151,16.4040367" id="Fill-21" fill="#FFFFFE"></path>
                    <path d="M334.809621,3.5285136 L337.602819,3.5285136 L337.602819,0.965414128 L334.809621,0.965414128 L334.809621,3.5285136 Z M333.317981,16.4040367 L333.317981,14.6182707 L334.809621,14.6182707 L334.809621,7.01500918 L333.317981,7.01500918 L333.317981,5.22924316 L337.602819,5.22924316 L337.602819,14.6182707 L338.905378,14.6182707 L338.905378,16.4040367 L333.317981,16.4040367 L333.317981,16.4040367 Z" id="Fill-22" fill="#FFFFFE"></path>
                    <path d="M344.333707,7.60326152 C344.774896,5.6494234 346.097463,4.85108094 348.051301,5.04016205 L348.051301,7.77133362 C347.737167,7.68729757 347.401022,7.60326152 347.064878,7.60326152 C346.035437,7.60326152 345.132049,8.23253146 344.774896,9.177937 C344.501779,9.93426144 344.501779,10.963703 344.501779,11.7410365 L344.501779,14.6182707 L346.287545,14.6182707 L346.287545,16.4040367 L340.23795,16.4040367 L340.23795,14.6182707 L341.70758,14.6182707 L341.70758,7.01500918 L340.23795,7.01500918 L340.23795,5.22924316 L344.333707,5.22924316 L344.333707,7.60326152" id="Fill-23" fill="#FFFFFE"></path>
                    <path d="M356.442901,9.76618934 C356.422893,8.50564861 355.918676,6.699874 354.321991,6.699874 C352.557234,6.699874 351.989991,8.29555849 351.863937,9.76618934 L356.442901,9.76618934 Z M351.80091,11.3838833 C351.779901,12.9805682 352.452189,14.8283608 354.363009,14.8283608 C355.476487,14.8283608 356.25482,14.0720364 356.442901,13.0015772 L359.111046,13.0015772 C358.921965,15.4586312 356.484919,16.6561449 354.216946,16.6561449 C353.50264,16.6561449 352.536225,16.4250457 351.884946,16.1309196 C351.14963,15.7947754 350.666423,15.3745951 350.183216,14.7233158 C349.300837,13.5888291 348.965694,12.1191987 348.965694,10.7115949 C348.965694,7.64527955 350.709442,4.956126 354.090892,4.956126 C355.582532,4.956126 356.989135,5.35529723 358.018577,6.44776586 C358.921965,7.41418041 359.195082,8.98885589 359.258109,10.2493966 C359.279118,10.5855408 359.320135,10.900676 359.279118,11.2158112 C359.279118,11.2788382 359.258109,11.3208562 359.258109,11.3838833 L351.80091,11.3838833 L351.80091,11.3838833 Z" id="Fill-24" fill="#FFFFFE"></path>
                    <g id="Group-66" transform="translate(0.000000, 1.000429)" fill="#FFFFFE">
                        <path d="M46.7310459,0.384164793 L-3.41236672e-13,0.384164793 L-3.41236672e-13,29.1485037 C-0.00700300404,36.6797343 2.08089263,42.6973156 6.38173753,47.5403931 C9.83121724,51.4240591 14.9254025,56.1821001 23.7731978,58.527106 L24.1993807,58.6401545 L24.6275643,58.527106 C33.4733589,56.1821001 38.5675441,51.4240591 42.0170238,47.5403931 C46.3168683,42.6993165 48.4047639,36.6827356 48.4017626,29.1475032 L48.4017626,0.384164793 L46.7310459,0.384164793" id="Fill-65"></path>
                    </g>
                    <path d="M24.2013815,3.05531062 L1.67071668,3.05531062 L1.67071668,30.1469319 C1.66571453,37.254981 3.61555094,42.9084062 7.63227397,47.4293455 C10.963703,51.1809548 15.8317913,55.6938907 24.2013815,57.9138429 C32.5689709,55.6938907 37.4370591,51.1809548 40.7694886,47.4293455 C44.7862117,42.9084062 46.7360481,37.254981 46.7300455,30.1469319 L46.7300455,3.05531062 L24.2013815,3.05531062" id="Fill-67" fill="#003591"></path>
                    <path d="M11.4869275,44.0028756 C8.30656321,40.4193384 6.82492765,36.0184506 6.82892936,30.1489328 L6.82892936,8.2135233 L24.2013815,8.2135233 L24.2013815,52.5435393 C18.0087251,50.5997054 14.3101385,47.1792382 11.4869275,44.0028756" id="Fill-68" fill="#FFFFFE"></path>
                    <polyline id="Fill-69" fill="#003591" points="11.0667472 37.5120913 11.0667472 14.8433673 16.1489273 14.8433673 19.591404 24.8836742 19.654431 24.8836742 19.654431 14.8433673 24.2013815 14.8433673 24.2013815 37.5120913 19.2752684 37.5120913 15.6757243 25.769054 15.6136977 25.769054 15.6136977 37.5120913 11.0667472 37.5120913"></polyline>
                    <polyline id="Fill-70" fill="#FFFFFE" points="32.5579662 14.8433673 32.5579662 23.722176 28.8273659 23.722176 28.8273659 14.8433673 24.2013815 14.8433673 24.2013815 37.5120913 28.9074002 37.5120913 28.9074002 28.3871771 32.6390009 28.3871771 32.6390009 37.5120913 37.3340149 37.5120913 37.3340149 14.8433673 32.5579662 14.8433673"></polyline>
                </g>
                <g id="unhm" transform="translate(60.253906, 23.500000)" fill="#FFFFFF">
                    <path d="M7.95287003,14.6313493 L6.47287003,14.6313493 L6.34337003,13.5028493 L6.28787003,13.5028493 C5.78837003,14.2058493 4.82637003,14.8348493 3.54987003,14.8348493 C1.73687003,14.8348493 0.811870027,13.5583493 0.811870027,12.2633493 C0.811870027,10.0988493 2.73587003,8.91484927 6.19537003,8.93334927 L6.19537003,8.74834927 C6.19537003,8.00834927 5.99187003,6.67634927 4.16037003,6.67634927 C3.32787003,6.67634927 2.45837003,6.93534927 1.82937003,7.34234927 L1.45937003,6.26934927 C2.19937003,5.78834927 3.27237003,5.47384927 4.40087003,5.47384927 C7.13887003,5.47384927 7.80487003,7.34234927 7.80487003,9.13684927 L7.80487003,12.4853493 C7.80487003,13.2623493 7.84187003,14.0208493 7.95287003,14.6313493 Z M6.23237003,11.6158493 L6.23237003,10.0618493 C4.45637003,10.0248493 2.43987003,10.3393493 2.43987003,12.0783493 C2.43987003,13.1328493 3.14287003,13.6323493 3.97537003,13.6323493 C5.14087003,13.6323493 5.88087003,12.8923493 6.13987003,12.1338493 C6.19537003,11.9673493 6.23237003,11.7823493 6.23237003,11.6158493 Z M10.80187,3.53134927 L10.80187,5.67734927 L9.41437003,5.67734927 L9.41437003,6.91684927 L10.80187,6.91684927 L10.80187,11.8008493 C10.80187,12.8553493 10.96837,13.6508493 11.43087,14.1318493 C11.81937,14.5758493 12.42987,14.8163493 13.18837,14.8163493 C13.81737,14.8163493 14.31687,14.7238493 14.63137,14.5943493 L14.55737,13.3733493 C14.35387,13.4288493 14.03937,13.4843493 13.61387,13.4843493 C12.70737,13.4843493 12.39287,12.8553493 12.39287,11.7453493 L12.39287,6.91684927 L14.72387,6.91684927 L14.72387,5.67734927 L12.39287,5.67734927 L12.39287,3.10584927 L10.80187,3.53134927 Z M31.35537,14.6313493 L32.92787,14.6313493 L32.15087,2.16234927 L30.09737,2.16234927 L27.87737,8.19334927 C27.32237,9.76584927 26.87837,11.1348493 26.56387,12.3928493 L26.50837,12.3928493 C26.19387,11.0978493 25.76837,9.72884927 25.25037,8.19334927 L23.12287,2.16234927 L21.06937,2.16234927 L20.19987,14.6313493 L21.73537,14.6313493 L22.06837,9.28484927 C22.17937,7.41634927 22.27187,5.32584927 22.30887,3.77184927 L22.34587,3.77184927 C22.69737,5.25184927 23.19687,6.86134927 23.78887,8.61884927 L25.80537,14.5573493 L27.02637,14.5573493 L29.22787,8.50784927 C29.85687,6.78734927 30.37487,5.23334927 30.80037,3.77184927 L30.85587,3.77184927 C30.83737,5.32584927 30.94837,7.41634927 31.04087,9.15534927 L31.35537,14.6313493 Z M41.78937,14.6313493 L40.30937,14.6313493 L40.17987,13.5028493 L40.12437,13.5028493 C39.62487,14.2058493 38.66287,14.8348493 37.38637,14.8348493 C35.57337,14.8348493 34.64837,13.5583493 34.64837,12.2633493 C34.64837,10.0988493 36.57237,8.91484927 40.03187,8.93334927 L40.03187,8.74834927 C40.03187,8.00834927 39.82837,6.67634927 37.99687,6.67634927 C37.16437,6.67634927 36.29487,6.93534927 35.66587,7.34234927 L35.29587,6.26934927 C36.03587,5.78834927 37.10887,5.47384927 38.23737,5.47384927 C40.97537,5.47384927 41.64137,7.34234927 41.64137,9.13684927 L41.64137,12.4853493 C41.64137,13.2623493 41.67837,14.0208493 41.78937,14.6313493 Z M40.06887,11.6158493 L40.06887,10.0618493 C38.29287,10.0248493 36.27637,10.3393493 36.27637,12.0783493 C36.27637,13.1328493 36.97937,13.6323493 37.81187,13.6323493 C38.97737,13.6323493 39.71737,12.8923493 39.97637,12.1338493 C40.03187,11.9673493 40.06887,11.7823493 40.06887,11.6158493 Z M44.26837,14.6313493 L45.89637,14.6313493 L45.89637,9.24784927 C45.89637,8.97034927 45.93337,8.69284927 46.00737,8.48934927 C46.28487,7.58284927 47.11737,6.82434927 48.19037,6.82434927 C49.72587,6.82434927 50.26237,8.02684927 50.26237,9.46984927 L50.26237,14.6313493 L51.89037,14.6313493 L51.89037,9.28484927 C51.89037,6.21384927 49.96637,5.47384927 48.72687,5.47384927 C47.24687,5.47384927 46.21087,6.30634927 45.76687,7.15734927 L45.72987,7.15734927 L45.63737,5.67734927 L44.19437,5.67734927 C44.24987,6.41734927 44.26837,7.17584927 44.26837,8.10084927 L44.26837,14.6313493 Z M60.64087,13.0773493 C60.17837,13.2808493 59.56787,13.5213493 58.64287,13.5213493 C56.86687,13.5213493 55.53487,12.2448493 55.53487,10.1728493 C55.53487,8.30434927 56.64487,6.78734927 58.69837,6.78734927 C59.58637,6.78734927 60.19687,6.99084927 60.58537,7.21284927 L60.95537,5.95484927 C60.51137,5.73284927 59.66037,5.49234927 58.69837,5.49234927 C55.77537,5.49234927 53.88837,7.49034927 53.88837,10.2468493 C53.88837,12.9848493 55.64587,14.8163493 58.34687,14.8163493 C59.54937,14.8163493 60.49287,14.5203493 60.91837,14.2983493 L60.64087,13.0773493 Z M62.82387,14.6313493 L64.45187,14.6313493 L64.45187,9.22934927 C64.45187,8.91484927 64.47037,8.67434927 64.56287,8.45234927 C64.85887,7.56434927 65.69137,6.82434927 66.74587,6.82434927 C68.28137,6.82434927 68.81787,8.04534927 68.81787,9.48834927 L68.81787,14.6313493 L70.44587,14.6313493 L70.44587,9.30334927 C70.44587,6.21384927 68.52187,5.47384927 67.31937,5.47384927 C66.70887,5.47384927 66.13537,5.65884927 65.65437,5.93634927 C65.15487,6.21384927 64.74787,6.62084927 64.48887,7.08334927 L64.45187,7.08334927 L64.45187,1.49634927 L62.82387,1.49634927 L62.82387,14.6313493 Z M80.28787,10.4503493 L73.99787,10.4503493 C74.03487,12.6518493 75.44087,13.5583493 77.06887,13.5583493 C78.23437,13.5583493 78.93737,13.3548493 79.54787,13.0958493 L79.82537,14.2613493 C79.25187,14.5203493 78.27137,14.8163493 76.84687,14.8163493 C74.09037,14.8163493 72.44387,13.0033493 72.44387,10.3023493 C72.44387,7.60134927 74.03487,5.47384927 76.64337,5.47384927 C79.56637,5.47384927 80.34337,8.04534927 80.34337,9.69184927 C80.34337,10.0248493 80.30637,10.2838493 80.28787,10.4503493 Z M74.01637,9.28484927 L78.77087,9.28484927 C78.78937,8.24884927 78.34537,6.63934927 76.51387,6.63934927 C74.86737,6.63934927 74.14587,8.15634927 74.01637,9.28484927 Z M81.73087,14.2058493 C82.35987,14.5758493 83.26637,14.8163493 84.24687,14.8163493 C86.37437,14.8163493 87.59537,13.7063493 87.59537,12.1338493 C87.59537,10.8018493 86.79987,10.0248493 85.24587,9.43284927 C84.08037,8.98884927 83.54387,8.65584927 83.54387,7.91584927 C83.54387,7.24984927 84.08037,6.69484927 85.04237,6.69484927 C85.87487,6.69484927 86.52237,6.99084927 86.87387,7.21284927 L87.28087,6.02884927 C86.78137,5.73284927 85.98587,5.47384927 85.07937,5.47384927 C83.15537,5.47384927 81.98987,6.65784927 81.98987,8.10084927 C81.98987,9.17384927 82.74837,10.0618493 84.35787,10.6353493 C85.56037,11.0793493 86.02287,11.5048493 86.02287,12.2818493 C86.02287,13.0218493 85.46787,13.6138493 84.28387,13.6138493 C83.46987,13.6138493 82.61887,13.2808493 82.13787,12.9663493 L81.73087,14.2058493 Z M90.05587,3.53134927 L90.05587,5.67734927 L88.66837,5.67734927 L88.66837,6.91684927 L90.05587,6.91684927 L90.05587,11.8008493 C90.05587,12.8553493 90.22237,13.6508493 90.68487,14.1318493 C91.07337,14.5758493 91.68387,14.8163493 92.44237,14.8163493 C93.07137,14.8163493 93.57087,14.7238493 93.88537,14.5943493 L93.81137,13.3733493 C93.60787,13.4288493 93.29337,13.4843493 92.86787,13.4843493 C91.96137,13.4843493 91.64687,12.8553493 91.64687,11.7453493 L91.64687,6.91684927 L93.97787,6.91684927 L93.97787,5.67734927 L91.64687,5.67734927 L91.64687,3.10584927 L90.05587,3.53134927 Z M103.00587,10.4503493 L96.71587,10.4503493 C96.75287,12.6518493 98.15887,13.5583493 99.78687,13.5583493 C100.95237,13.5583493 101.65537,13.3548493 102.26587,13.0958493 L102.54337,14.2613493 C101.96987,14.5203493 100.98937,14.8163493 99.56487,14.8163493 C96.80837,14.8163493 95.16187,13.0033493 95.16187,10.3023493 C95.16187,7.60134927 96.75287,5.47384927 99.36137,5.47384927 C102.28437,5.47384927 103.06137,8.04534927 103.06137,9.69184927 C103.06137,10.0248493 103.02437,10.2838493 103.00587,10.4503493 Z M96.73437,9.28484927 L101.48887,9.28484927 C101.50737,8.24884927 101.06337,6.63934927 99.23187,6.63934927 C97.58537,6.63934927 96.86387,8.15634927 96.73437,9.28484927 Z M105.07787,14.6313493 L106.68737,14.6313493 L106.68737,9.85834927 C106.68737,9.58084927 106.72437,9.32184927 106.76137,9.09984927 C106.98337,7.87884927 107.79737,7.00934927 108.94437,7.00934927 C109.16637,7.00934927 109.33287,7.02784927 109.49937,7.06484927 L109.49937,5.52934927 C109.35137,5.49234927 109.22187,5.47384927 109.03687,5.47384927 C107.94537,5.47384927 106.96487,6.23234927 106.55787,7.43484927 L106.48387,7.43484927 L106.42837,5.67734927 L105.00387,5.67734927 C105.05937,6.50984927 105.07787,7.41634927 105.07787,8.47084927 L105.07787,14.6313493 Z" id="Peter-T.-Paul-College-Copy-7"></path>
                </g>
            </g>
        </g>
    </g>
</svg>
